<?xml version="1.0" encoding="UTF-8" standalone="no"?>
<svg
   xmlns:dc="http://purl.org/dc/elements/1.1/"
   xmlns:cc="http://creativecommons.org/ns#"
   xmlns:rdf="http://www.w3.org/1999/02/22-rdf-syntax-ns#"
   xmlns:svg="http://www.w3.org/2000/svg"
   xmlns="http://www.w3.org/2000/svg"
   xmlns:xlink="http://www.w3.org/1999/xlink"
   id="Capa_1"
   data-name="Capa 1"
   viewBox="0 0 998.74647 470.59308"
   version="1.1"
   width="998.74652"
   height="470.59308">
  <metadata
     id="metadata181">
    <rdf:RDF>
      <cc:Work
         rdf:about="">
        <dc:format>image/svg+xml</dc:format>
        <dc:type
           rdf:resource="http://purl.org/dc/dcmitype/StillImage" />
        <dc:title>PP</dc:title>
      </cc:Work>
    </rdf:RDF>
  </metadata>
  <defs
     id="defs13">
    <radialGradient
       gradientUnits="userSpaceOnUse"
       gradientTransform="matrix(1.03,0,0,1.03,-398.59,-65.54)"
       r="323.34"
       cy="356.03"
       cx="775.98999"
       id="Degradado_sin_nombre_174">
      <stop
         id="stop4034"
         stop-color="#f3c006"
         offset="0" />
      <stop
         id="stop4036"
         stop-color="#e59616"
         offset="0.33" />
      <stop
         id="stop4038"
         stop-color="#d56224"
         offset="0.66" />
      <stop
         id="stop4040"
         stop-color="#c40904"
         offset="1" />
    </radialGradient>
    <style
       id="style2">.cls-1{fill:url(#Degradado_sin_nombre_174);}.cls-2{fill:#70767c;opacity:0.49;}.cls-2,.cls-3,.cls-37,.cls-38,.cls-52{isolation:isolate;}.cls-3{fill:#7790aa;opacity:0.8;}.cls-4{fill:#0056a3;}.cls-5{fill:#863a6c;}.cls-6{fill:#7f3c71;}.cls-7{fill:#7e3e73;}.cls-8{fill:#833c6e;}.cls-9{fill:#71427a;}.cls-10{fill:#8b3563;}.cls-11{fill:#634680;}.cls-12{fill:#723e74;}.cls-13{fill:#813a6c;}.cls-14{fill:#6f4178;}.cls-15{fill:#7f3769;}.cls-16{fill:#6d4178;}.cls-17{fill:#7e3b6f;}.cls-18{fill:#7c3e72;}.cls-19{fill:#774076;}.cls-20{fill:#744076;}.cls-21{fill:#7a3f75;}.cls-22{fill:#86396b;}.cls-23{fill:#7b3a6d;}.cls-24{fill:#8e3463;}.cls-25{fill:#6a4078;}.cls-26{fill:#6d4078;}.cls-27{fill:#7d396a;}.cls-28{fill:#534582;}.cls-29{fill:#843d6c;}.cls-30{fill:#65427a;}.cls-31{fill:#773e73;}.cls-32{fill:#7a3c71;}.cls-33{fill:#fff;}.cls-34{fill:#714279;}.cls-35{fill:#7f3d71;}.cls-36{fill:#734279;}.cls-37{fill:#6c7273;opacity:0.47;}.cls-38{fill:#737a7d;opacity:0.5;}.cls-39{fill:#794076;}.cls-40{fill:#783f74;}.cls-41{fill:#784076;}.cls-42{fill:#7d3d72;}.cls-43{fill:#87396b;}.cls-44{fill:#7c3c70;}.cls-45{fill:#733d73;}.cls-46{fill:#783d72;}.cls-47{fill:#7e3c6f;}.cls-48{fill:#7f396c;}.cls-49{fill:#783f75;}.cls-50{fill:#754077;}.cls-51{fill:#70447d;}.cls-52{fill:#8b9aa8;opacity:0.72;}</style>
    <radialGradient
       id="Degradado_sin_nombre_174-9"
       cx="775.98999"
       cy="356.03"
       r="323.34"
       gradientTransform="matrix(1.03,0,0,1.03,-398.59,-65.54)"
       gradientUnits="userSpaceOnUse">
      <stop
         style="stop-color:#c5342e;stop-opacity:1"
         id="stop10"
         stop-color="#c40904"
         offset="0" />
      <stop
         id="stop8"
         stop-color="#d56224"
         offset="0.34"
         style="stop-color:#ca332f;stop-opacity:1" />
      <stop
         id="stop6"
         stop-color="#e59616"
         offset="0.67"
         style="stop-color:#e02e31;stop-opacity:1" />
      <stop
         id="stop4"
         stop-color="#f3c006"
         offset="1"
         style="stop-color:#e02e31;stop-opacity:1" />
    </radialGradient>
    <clipPath
       clipPathUnits="userSpaceOnUse"
       id="clipPath4683">
      <path
         class="cls-4"
         d="m 325,198.08 -0.64,-0.14 c -24.55084,2.81987 -48.72266,8.29868 -72.09,16.34 -15.51621,5.21931 -30.58803,11.67675 -45.07,19.31 -11.54535,6.00616 -22.68577,12.76056 -33.35,20.22 -0.7,0.65 -1.93,1.07 -2.24,2 -1.8948,0.97109 -3.68715,2.13025 -5.35,3.46 -6.85,5.31 -13.72,10.62 -20,16.57 -5.51,4.54 -10.38,9.78 -15.42,14.82 -2.32,2.7 -5.4,5 -7.08,8.11 -4.63,4.38 -8.5,9.51 -12.31,14.6 -2.7,3.57 -5.87,7.06 -7.85,11 -7.76216,10.51525 -14.49325,21.75382 -20.1,33.56 -1.62,1.28 -2.31,3.25 -3.16,5.05 -1.09,2.5 -2.75,4.83 -2.83,7.65 -2.82208,5.9567 -5.24736,12.09341 -7.26,18.37 -2.16029,3.49787 -3.48462,7.44691 -3.87,11.54 -0.39137,1.0473 -0.69901,2.12402 -0.92,3.22 -1.49,1.79 -1.75,4.16 -2.29,6.34 -0.58,2.81 -1.74,5.54 -1.57,8.47 l -0.08,0.35 c -2.27,2.55 -1.92,6.38 -2.19,9.58 -0.41505,1.40702 -0.6963,2.85009 -0.84,4.31 -1.86,4.21 -2.14,9 -2.12,13.62 l -0.1,0.56 c -1.37,3.18 -1.14,6.76 -1.73,10.13 -2.26,16.94 -2.29,34.06 -2,51.11 0.0902,11.01238 0.91202,22.00659 2.46,32.91 0.33,2.44 0.37,5 1.3,7.31 l 0.24,1.29 c -0.13645,5.70346 0.7858,11.38279 2.72,16.75 l 0.1,0.48 c 0.22,3.58 0.15,7.52 2.16,10.65 1.46794,7.83175 3.47267,15.5533 6,23.11 0.22354,3.08981 1.08499,6.09977 2.53,8.84 v -0.78 c 0.87489,3.77137 2.09676,7.45372 3.65,11 0.29639,3.46006 1.56907,6.76486 3.67,9.53 l 0.25,0.57 c 0.0142,2.4925 1.01776,4.87731 2.79,6.63 11.24475,26.87997 26.80274,51.7437 46.06,73.61 11.10293,12.15769 23.08888,23.4785 35.86,33.87 6.82,5.22 14.2,10.55 23,11.67 4.12,0.38 9.14,-1.12 10.93,-5.19 2.4,-2.41 1.88,-6.26 1.94,-9.38 -0.37,-3.14 -0.1,-6.7 -2,-9.39 -0.20524,-1.4307 -0.53995,-2.83982 -1,-4.21 -0.41,-4 -0.94,-8.18 -3.06,-11.65 -2.29,-9.21 -4.83,-18.39 -7.87,-27.37 -0.34,-3.34 -0.94,-6.85 -3,-9.61 -2.2,-7.82 -4.57,-15.63 -7.26,-23.3 -0.73,-4.29 -1.69,-8.66 -3.83,-12.49 l -0.15,-0.51 c -0.52186,-4.39598 -1.79007,-8.67067 -3.75,-12.64 -0.49965,-2.44984 -1.1679,-4.86225 -2,-7.22 -1.11,-5.33 -1.82,-10.94 -4.22,-15.85 -0.19568,-1.12258 -0.46289,-2.2315 -0.8,-3.32 -0.20142,-4.35447 -1.15552,-8.64116 -2.82,-12.67 -0.23638,-1.83228 -0.61078,-3.6441 -1.12,-5.42 -0.3,-3.93 -0.24,-8.19 -2.1,-11.75 -3.11103,-20.68498 -4.1895,-41.62486 -3.22,-62.52 1.23,-5.11 0.62,-10.61 1.54,-15.84 0.88667,-7.12667 2.08667,-14.20667 3.6,-21.24 l -0.7,-0.75 0.69,0.51 c 1.19,-7.15 3.45,-14.05 5,-21.12 2.28,-6.94 5,-13.82 7,-20.82 0.78486,-1.21138 1.45446,-2.49365 2,-3.83 3.69,-9.41 8.45,-18.34 13.27,-27.21 5.46449,-9.39043 11.68508,-18.31998 18.6,-26.7 l -0.08,-0.46 c 2.00041,-1.99694 3.89946,-4.09291 5.69,-6.28 5.32,-6.28 11.47,-11.78 17.27,-17.57 11.43,-9.66 23.3,-18.88 36.26,-26.42 v -0.29 c 5.11,-2.53 9.92,-5.6 15,-8.12 21.24056,-10.87067 43.80241,-18.93808 67.12,-24 32.38,-7.15 66.19,-8.69 98.86,-2.51 19,3.09 37.28,9.15 55.12,16.11 9.92,4.54 19.75,9.28 29.39,14.38 v 0.21 c 13.32211,7.60522 26.06353,16.18529 38.12,25.67 v 0.23 c 8.38017,6.76638 16.31032,14.07187 23.74,21.87 7.13,7.59 13.58,15.79 20,24 1.16,3.6 4.8,6.61 8.76,5.56 3.21,-1.23 5.47,-4 8,-6.3 v -0.17 c 5.83,-4.34 11.07,-9.43 16.87,-13.82 V 376 c 2.77912,-1.87427 5.4501,-3.90418 8,-6.08 2.61,-1.95 5.43,-3.7 7.85,-5.86 1,-0.66 2,-1.36 2.9,-2.1 3.7203,-1.61185 7.0722,-3.96665 9.85,-6.92 4.93,-2.68 9.51,-6 14.3,-8.91 3.17,-0.77 6.74,-2.33 8.57,-5.07 2.5043,-1.2327 4.932,-2.6152 7.27,-4.14 2.5,-0.69 5.11,-1.63 6.84,-3.67 2.8778,-1.16388 5.6569,-2.55842 8.31,-4.17 2.4602,-0.18933 4.7607,-1.29146 6.45,-3.09 2.9168,-1.1258 5.7709,-2.40765 8.55,-3.84 3.53,-0.23 6.63,-2.05 9.44,-4 l 0.5,-0.25 c 2.3489,-0.2212 4.5912,-1.08628 6.48,-2.5 l 1.51,-0.51 c 3.378,-0.47178 6.6166,-1.65813 9.5,-3.48 l 1.85,-0.59 c 2.6013,-0.18557 5.1083,-1.05111 7.27,-2.51 4.83,-1.24 9.59,-2.74 14.35,-4.25 3.7103,-0.15825 7.3414,-1.12403 10.64,-2.83 l 0.52,-0.12 c 4.57,-0.44 9.38,-1 13.56,-3 1.82,-0.28 3.62,-0.65 5.43,-1.06 5.3063,-0.13439 10.5648,-1.04056 15.61,-2.69 3.1312,-0.29357 6.2453,-0.7475 9.33,-1.36 5.48,0.34 10.88,-0.82 16.34,-1.08 6.3,-1.23 12.79,-0.28 19.06,-1.68 8.92,-0.18 17.8467,-0.18 26.78,0 4.3,1.11 8.78,0.72 13.19,1 5.65,0.59 11.32,1.32 17,1.56 2.33,0.05 4.09,-1.75 5.13,-3.66 1.43,-3.26 0.63,-7.62 -2.8,-9.24 -14.37,-8.57 -29.38,-16.3 -45.18,-21.85 -3.1717,-2.04621 -6.7775,-3.32345 -10.53,-3.73 l -0.58,-0.19 c -2.48,-2.38 -6.2,-2.64 -9.43,-2.9 -1.4289,-0.51933 -2.8968,-0.92395 -4.39,-1.21 -3.53,-2 -7.72,-2.58 -11.71,-2.75 -1.6882,-0.4661 -3.41,-0.80044 -5.15,-1 -4.0361,-1.63861 -8.396,-2.32306 -12.74,-2 l -0.45,-0.08 c -7.86,-2 -16.15,-1.63 -24.2,-2.55 -9.7796,-0.46371 -19.5812,0.0118 -29.27,1.42 -3.4732,0.18359 -6.9306,0.59447 -10.35,1.23 -5.6362,-0.0721 -11.2393,0.87299 -16.54,2.79 l -0.61,0.13 c -4.3484,0.0767 -8.6277,1.10051 -12.54,3 l -0.45,0.14 c -4.6589,0.47871 -9.1941,1.78948 -13.39,3.87 l -0.6,0.17 c -2.7355,0.12292 -5.4038,0.88677 -7.79,2.23 l 0.84,0.24 c -1.3834,0.28985 -2.7266,0.74652 -4,1.36 -2.7488,0.0698 -5.3786,1.13591 -7.4,3 l -0.57,0.22 c -3.0997,0.43324 -6.0164,1.72529 -8.42,3.73 l -0.6,0.23 c -2.53,0 -4.66,1.36 -6.44,3 -11.8126,5.59156 -23.1443,12.14708 -33.88,19.6 -1.7054,1.01348 -3.3392,2.1428 -4.89,3.38 -2.55,1.7 -5,3.54 -7.4,5.43 -4.25,3.16 -8.4,6.46 -12.39,9.95 -3.93,3 -7.74,8.62 -13.4,6 -0.9541,-0.90133 -1.83053,-1.88146 -2.62,-2.93 -8.34896,-13.10489 -18.19155,-25.19588 -29.33,-36.03 -13.61625,-13.55574 -28.92622,-25.29618 -45.55,-34.93 -31.2,-18.36 -66,-30 -101.53,-36.51 -36.93,-6.51 -74.89,-9 -112.2,-4.28"
         id="path4685"
         style="fill:#0056a3" />
    </clipPath>
    <linearGradient
       xlink:href="#Degradado_sin_nombre_174-9"
       id="linearGradient959"
       x1="133.4165"
       y1="411.10944"
       x2="522.28693"
       y2="411.10944"
       gradientUnits="userSpaceOnUse"
       gradientTransform="translate(53.744271,27.038219)" />
    <radialGradient
       id="Degradado_sin_nombre_174-9-0"
       cx="775.98999"
       cy="356.03"
       r="323.34"
       gradientTransform="matrix(1.03,0,0,1.03,-398.59,-65.54)"
       gradientUnits="userSpaceOnUse">
      <stop
         style="stop-color:#c5342e;stop-opacity:1"
         id="stop10-9"
         stop-color="#c40904"
         offset="0" />
      <stop
         id="stop8-0"
         stop-color="#d56224"
         offset="0.34"
         style="stop-color:#ca332f;stop-opacity:1" />
      <stop
         id="stop6-0"
         stop-color="#e59616"
         offset="0.67"
         style="stop-color:#e02e31;stop-opacity:1" />
      <stop
         id="stop4-9"
         stop-color="#f3c006"
         offset="1"
         style="stop-color:#e02e31;stop-opacity:1" />
    </radialGradient>
  </defs>
  <title
     id="title15">PP</title>
  <g
     id="_7790aacb"
     data-name="#7790aacb"
     transform="translate(-82.028443,-267.44959)" />
  <g
     id="_0056a3ff"
     data-name="#0056a3ff"
     transform="translate(-82.028443,-267.44959)" />
  <g
     transform="translate(8.5872665,-203.00692)"
     id="g938">
    <rect
       style="opacity:1;fill:#e81a75;fill-opacity:1;fill-rule:evenodd;stroke:#244e98;stroke-width:0;stroke-linecap:round;stroke-linejoin:round;stroke-miterlimit:4;stroke-dasharray:none;stroke-opacity:1;paint-order:stroke fill markers"
       id="rect863"
       width="13.739622"
       height="116.59598"
       x="-8.5872641"
       y="207.21608" />
    <rect
       style="opacity:1;fill:#f8af37;fill-opacity:1;fill-rule:evenodd;stroke:#244e98;stroke-width:0;stroke-linecap:round;stroke-linejoin:round;stroke-miterlimit:4;stroke-dasharray:none;stroke-opacity:1;paint-order:stroke fill markers"
       id="rect863-7"
       width="13.739622"
       height="116.59598"
       x="-8.5872641"
       y="323.81207" />
    <rect
       style="opacity:1;fill:#83be40;fill-opacity:1;fill-rule:evenodd;stroke:#244e98;stroke-width:0;stroke-linecap:round;stroke-linejoin:round;stroke-miterlimit:4;stroke-dasharray:none;stroke-opacity:1;paint-order:stroke fill markers"
       id="rect863-7-4"
       width="13.739622"
       height="116.59598"
       x="-8.587266"
       y="440.40805" />
    <rect
       style="opacity:1;fill:#1c6fac;fill-opacity:1;fill-rule:evenodd;stroke:#244e98;stroke-width:0;stroke-linecap:round;stroke-linejoin:round;stroke-miterlimit:4;stroke-dasharray:none;stroke-opacity:1;paint-order:stroke fill markers"
       id="rect863-7-4-1"
       width="13.739622"
       height="116.59598"
       x="-8.587266"
       y="557.00403" />
  </g>
  <g
     id="text942-5-5"
     style="font-style:normal;font-variant:normal;font-weight:normal;font-stretch:normal;font-size:38.56478882px;line-height:1.25;font-family:Interface;-inkscape-font-specification:Interface;letter-spacing:0px;word-spacing:0px;fill:#000000;fill-opacity:1;stroke:none;stroke-width:0.96411979"
     transform="scale(1.0112865,0.98883944)"
     aria-label="DE COSTA RICA">
    <path
       id="path326"
       style="font-style:normal;font-variant:normal;font-weight:500;font-stretch:normal;font-size:84.2496109px;font-family:'Comenia Sans';-inkscape-font-specification:'Comenia Sans Medium';letter-spacing:2.05999994px;fill:#000000;stroke-width:0.96411979"
       d="m 334.43112,414.77105 v 58.63773 h 18.61916 c 19.20892,0 31.00386,-12.13194 31.00386,-29.40311 0,-19.20891 -11.5422,-29.23462 -29.23461,-29.23462 z m 10.27845,8.84621 h 8.67771 c 12.97444,0 19.79866,8.76196 19.79866,20.38841 0,12.55319 -8.08796,20.5569 -21.3994,20.5569 h -7.07697 z" />
    <path
       id="path328"
       style="font-style:normal;font-variant:normal;font-weight:500;font-stretch:normal;font-size:84.2496109px;font-family:'Comenia Sans';-inkscape-font-specification:'Comenia Sans Medium';letter-spacing:2.05999994px;fill:#000000;stroke-width:0.96411979"
       d="M 432.40536,464.56257 H 404.85573 V 447.7969 h 21.65215 v -8.84621 h -21.65215 v -15.33343 h 26.70713 v -8.84621 h -36.98558 v 58.63773 h 37.82808 z" />
    <path
       id="path330"
       style="font-style:normal;font-variant:normal;font-weight:500;font-stretch:normal;font-size:84.2496109px;font-family:'Comenia Sans';-inkscape-font-specification:'Comenia Sans Medium';letter-spacing:2.05999994px;fill:#000000;stroke-width:0.96411979"
       d="m 505.38624,415.44505 c -4.21248,-1.34799 -8.76196,-1.93774 -13.05869,-1.93774 -17.60816,0 -30.66685,11.79495 -30.66685,30.66686 0,19.12466 11.12094,30.49836 28.72911,30.49836 5.98173,0 11.79495,-1.09525 16.68143,-3.45424 v -8.08796 c -4.54948,1.60074 -10.36271,2.69599 -15.92318,2.69599 -12.04769,0 -18.53491,-9.77296 -18.53491,-21.65215 0,-14.06969 7.75096,-21.82065 19.79865,-21.82065 3.87549,0 8.67771,0.75825 12.97444,2.35899 z" />
    <path
       id="path332"
       style="font-style:normal;font-variant:normal;font-weight:500;font-stretch:normal;font-size:84.2496109px;font-family:'Comenia Sans';-inkscape-font-specification:'Comenia Sans Medium';letter-spacing:2.05999994px;fill:#000000;stroke-width:0.96411979"
       d="m 541.63842,466.24757 c -10.1942,0 -17.27117,-9.01471 -17.27117,-22.0734 0,-16.26018 7.16122,-22.2419 17.27117,-22.2419 10.10995,0 17.27117,8.93046 17.27117,22.0734 0,16.26017 -7.24547,22.2419 -17.27117,22.2419 z m 0,8.42496 c 16.59717,0 28.13937,-11.62645 28.13937,-30.66686 0,-20.97815 -12.89019,-30.49836 -28.13937,-30.49836 -16.59717,0 -28.22362,11.62645 -28.22362,30.66686 0,20.97815 12.97444,30.49836 28.22362,30.49836 z" />
    <path
       id="path334"
       style="font-style:normal;font-variant:normal;font-weight:500;font-stretch:normal;font-size:84.2496109px;font-family:'Comenia Sans';-inkscape-font-specification:'Comenia Sans Medium';letter-spacing:2.05999994px;fill:#000000;stroke-width:0.96411979"
       d="m 578.51722,470.96554 c 4.88647,2.19049 9.77295,3.70699 17.10267,3.70699 10.61545,0 21.5679,-5.56048 21.5679,-16.42868 0,-17.94516 -27.54963,-18.53491 -27.54963,-29.57161 0,-4.04398 3.45424,-6.65572 9.09896,-6.65572 4.63373,0 9.43596,1.011 15.24918,3.11724 v -9.09896 c -4.54948,-1.60074 -9.5202,-2.52749 -14.74368,-2.52749 -11.0367,0 -20.38841,5.22348 -20.38841,16.09168 0,17.43966 27.71813,18.95616 27.71813,29.06611 0,4.46523 -4.80223,7.58247 -11.28945,7.58247 -5.56048,0 -10.95245,-0.92675 -16.76567,-2.94874 z" />
    <path
       id="path336"
       style="font-style:normal;font-variant:normal;font-weight:500;font-stretch:normal;font-size:84.2496109px;font-family:'Comenia Sans';-inkscape-font-specification:'Comenia Sans Medium';letter-spacing:2.05999994px;fill:#000000;stroke-width:0.96411979"
       d="m 652.42765,423.61726 h 18.70341 v -8.84621 h -47.68528 v 8.84621 h 18.70342 v 49.79152 h 10.27845 z" />
    <path
       id="path338"
       style="font-style:normal;font-variant:normal;font-weight:500;font-stretch:normal;font-size:84.2496109px;font-family:'Comenia Sans';-inkscape-font-specification:'Comenia Sans Medium';letter-spacing:2.05999994px;fill:#000000;stroke-width:0.96411979"
       d="m 685.16241,450.49289 8.34072,-23.92689 8.25646,23.92689 z m 19.71441,8.84621 4.88648,14.06968 h 10.95245 l -21.3994,-58.63773 h -11.0367 l -21.3994,58.63773 h 10.3627 l 4.80223,-14.06968 z" />
    <path
       id="path340"
       style="font-style:normal;font-variant:normal;font-weight:500;font-stretch:normal;font-size:84.2496109px;font-family:'Comenia Sans';-inkscape-font-specification:'Comenia Sans Medium';letter-spacing:2.05999994px;fill:#000000;stroke-width:0.96411979"
       d="m 761.46061,450.74564 h 4.80223 c 1.43224,0 2.78023,-0.0842 4.04398,-0.1685 l 13.64844,22.83164 H 796.2557 L 780.66952,448.1339 c 7.91946,-3.53848 10.44695,-10.27845 10.44695,-16.26018 0,-10.0257 -6.65572,-17.10267 -20.7254,-17.10267 h -19.20891 v 58.63773 h 10.27845 z m 0,-8.84621 v -18.28217 h 6.31872 c 8.84621,0 12.63744,2.78024 12.63744,8.42496 0,5.64473 -2.69599,9.85721 -14.49093,9.85721 z" />
    <path
       id="path342"
       style="font-style:normal;font-variant:normal;font-weight:500;font-stretch:normal;font-size:84.2496109px;font-family:'Comenia Sans';-inkscape-font-specification:'Comenia Sans Medium';letter-spacing:2.05999994px;fill:#000000;stroke-width:0.96411979"
       d="m 813.21473,414.77105 h -10.27845 v 58.63773 h 10.27845 z" />
    <path
       id="path344"
       style="font-style:normal;font-variant:normal;font-weight:500;font-stretch:normal;font-size:84.2496109px;font-family:'Comenia Sans';-inkscape-font-specification:'Comenia Sans Medium';letter-spacing:2.05999994px;fill:#000000;stroke-width:0.96411979"
       d="m 867.42129,415.44505 c -4.21248,-1.34799 -8.76196,-1.93774 -13.05869,-1.93774 -17.60816,0 -30.66685,11.79495 -30.66685,30.66686 0,19.12466 11.12094,30.49836 28.72911,30.49836 5.98173,0 11.79495,-1.09525 16.68143,-3.45424 v -8.08796 c -4.54948,1.60074 -10.36271,2.69599 -15.92318,2.69599 -12.04769,0 -18.53491,-9.77296 -18.53491,-21.65215 0,-14.06969 7.75096,-21.82065 19.79865,-21.82065 3.87549,0 8.67771,0.75825 12.97444,2.35899 z" />
    <path
       id="path346"
       style="font-style:normal;font-variant:normal;font-weight:500;font-stretch:normal;font-size:84.2496109px;font-family:'Comenia Sans';-inkscape-font-specification:'Comenia Sans Medium';letter-spacing:2.05999994px;fill:#000000;stroke-width:0.96411979"
       d="m 890.78326,450.49289 8.34072,-23.92689 8.25646,23.92689 z m 19.71441,8.84621 4.88648,14.06968 h 10.95245 l -21.3994,-58.63773 h -11.0367 l -21.3994,58.63773 h 10.3627 l 4.80223,-14.06968 z" />
  </g>
  <g
     id="text80"
     style="font-style:normal;font-variant:normal;font-weight:normal;font-stretch:normal;font-size:40px;line-height:1.25;font-family:Interface;-inkscape-font-specification:Interface;letter-spacing:0px;word-spacing:0px;fill:#000000;fill-opacity:1;stroke:none"
     aria-label="Agricultura
Ganadería">
    <path
       id="path285"
       style="font-style:normal;font-variant:normal;font-weight:normal;font-stretch:normal;font-size:193.33332825px;line-height:0.81999999;font-family:Tahoma;-inkscape-font-specification:Tahoma;letter-spacing:-3.8499999px"
       d="M 72.158513,219.19234 119.54784,78.62919 h 23.03385 l 47.38932,140.56315 H 170.24119 L 157.49705,179.9215 H 103.78286 L 91.038721,219.19234 Z M 152.305,163.96773 130.59276,97.6982 108.97492,163.96773 Z" />
    <path
       id="path287"
       style="font-style:normal;font-variant:normal;font-weight:normal;font-stretch:normal;font-size:193.33332825px;line-height:0.81999999;font-family:Tahoma;-inkscape-font-specification:Tahoma;letter-spacing:-3.8499999px"
       d="m 261.45304,190.58882 v -57.86783 q -6.60807,-3.20964 -12.27213,-4.53125 -5.56966,-1.41602 -11.13933,-1.41602 -13.49934,0 -21.24023,9.91211 -7.74089,9.91211 -7.74089,28.41471 0,17.55859 5.85287,26.7155 5.94726,9.1569 19.16341,9.1569 6.89128,0 14.16016,-2.73763 7.36328,-2.73763 13.21614,-7.64649 z m -59.66146,45.5013 q 1.79362,0.75521 5.28646,1.98242 3.49284,1.32162 7.92969,2.45443 4.90885,1.22722 9.0625,1.98242 4.15365,0.75521 9.0625,0.75521 8.21289,0 13.87695,-2.17122 5.75847,-2.17123 8.9681,-6.04167 3.02083,-3.87044 4.24805,-8.9681 1.22721,-5.09765 1.22721,-11.61132 v -9.25131 q -7.17448,6.23047 -14.06575,9.25131 -6.89128,2.92643 -17.27539,2.92643 -18.0306,0 -28.69792,-13.40495 -10.66732,-13.40495 -10.66732,-38.51562 0,-13.12175 3.68164,-23.22266 3.68164,-10.19531 9.91211,-17.27539 5.94727,-6.79687 14.06576,-10.47852 8.11849,-3.68164 16.80338,-3.68164 8.21289,0 14.16016,1.98243 6.04167,1.88802 12.08333,5.47526 l 1.03841,-4.53125 h 16.70899 v 93.45703 q 0,26.80989 -11.70573,39.36523 -11.70573,12.55534 -35.778,12.55534 -7.74088,0 -15.85937,-1.22722 -8.02409,-1.22721 -15.00977,-3.30403 v -18.50261 z" />
    <path
       id="path289"
       style="font-style:normal;font-variant:normal;font-weight:normal;font-stretch:normal;font-size:193.33332825px;line-height:0.81999999;font-family:Tahoma;-inkscape-font-specification:Tahoma;letter-spacing:-3.8499999px"
       d="m 356.91294,132.81539 h -0.94401 q -1.98243,-0.56641 -4.24805,-0.66081 -2.17122,-0.1888 -5.28646,-0.1888 -7.17448,0 -14.25456,3.11523 -7.08007,3.11524 -13.40494,9.2513 v 74.86003 h -17.7474 V 113.74638 h 17.7474 v 15.67057 q 9.7233,-8.5905 16.89778,-12.08333 7.26888,-3.58724 14.06576,-3.58724 2.73763,0 4.05924,0.1888 1.41602,0.0944 3.11524,0.3776 z" />
    <path
       id="path291"
       style="font-style:normal;font-variant:normal;font-weight:normal;font-stretch:normal;font-size:193.33332825px;line-height:0.81999999;font-family:Tahoma;-inkscape-font-specification:Tahoma;letter-spacing:-3.8499999px"
       d="M 385.1593,219.19234 H 367.4119 V 113.74638 h 17.7474 z M 386.38651,96.093382 H 366.18469 V 77.685179 h 20.20182 z" />
    <path
       id="path293"
       style="font-style:normal;font-variant:normal;font-weight:normal;font-stretch:normal;font-size:193.33332825px;line-height:0.81999999;font-family:Tahoma;-inkscape-font-specification:Tahoma;letter-spacing:-3.8499999px"
       d="m 449.27804,221.55236 q -10.85612,0 -19.91862,-3.30403 -9.0625,-3.39844 -15.57617,-10.19532 -6.51367,-6.79687 -10.10091,-17.08658 -3.58724,-10.38412 -3.58724,-24.35547 0,-13.87695 3.68164,-23.97787 3.77604,-10.10091 10.00651,-16.99218 6.23047,-6.89128 15.48177,-10.57292 9.3457,-3.77604 20.01302,-3.77604 8.68489,0 16.70898,2.45443 8.11849,2.45442 14.44336,5.66406 v 19.91862 h -1.03841 q -1.88802,-1.60482 -4.90885,-3.68164 -2.92644,-2.07683 -7.17448,-4.24805 -3.68164,-1.88802 -8.6849,-3.30404 -5.00325,-1.41601 -9.6289,-1.41601 -13.78256,0 -22.18425,10.47851 -8.30729,10.38412 -8.30729,29.45313 0,18.6914 8.02409,29.16992 8.11849,10.38411 22.46745,10.38411 8.68489,0 16.52018,-3.58724 7.83528,-3.58724 13.87695,-9.2513 h 1.03841 v 19.91862 q -2.64323,1.22722 -6.60807,3.02083 -3.96484,1.69922 -7.17448,2.54883 -4.53125,1.32162 -8.11849,1.98242 -3.58724,0.75521 -9.2513,0.75521 z" />
    <path
       id="path295"
       style="font-style:normal;font-variant:normal;font-weight:normal;font-stretch:normal;font-size:193.33332825px;line-height:0.81999999;font-family:Tahoma;-inkscape-font-specification:Tahoma;letter-spacing:-3.8499999px"
       d="m 574.75747,219.19234 h -17.7474 v -11.70573 q -8.21289,7.17448 -15.57617,10.95052 -7.36328,3.68164 -16.42578,3.68164 -6.89127,0 -13.02734,-2.26563 -6.04167,-2.26562 -10.57292,-7.17447 -4.53125,-4.90886 -7.08008,-12.36654 -2.45442,-7.45768 -2.45442,-18.125 v -68.44075 h 17.74739 v 60.03906 q 0,8.40169 0.56641,13.97135 0.66081,5.47526 2.83203,9.62891 2.17122,4.05924 5.85286,5.94726 3.77605,1.88802 10.76172,1.88802 6.51367,0 13.87696,-3.68164 7.36328,-3.68164 13.49934,-9.0625 v -78.73046 h 17.7474 z" />
    <path
       id="path297"
       style="font-style:normal;font-variant:normal;font-weight:normal;font-stretch:normal;font-size:193.33332825px;line-height:0.81999999;font-family:Tahoma;-inkscape-font-specification:Tahoma;letter-spacing:-3.8499999px"
       d="m 614.89834,219.19234 h -17.7474 V 72.30432 h 17.7474 z" />
    <path
       id="path299"
       style="font-style:normal;font-variant:normal;font-weight:normal;font-stretch:normal;font-size:193.33332825px;line-height:0.81999999;font-family:Tahoma;-inkscape-font-specification:Tahoma;letter-spacing:-3.8499999px"
       d="m 669.0106,221.26916 q -14.53776,0 -22.65625,-8.21289 -8.11849,-8.30729 -8.11849,-26.14909 v -58.43424 h -11.98893 v -14.72656 h 11.98893 V 83.443643 h 17.7474 v 30.302737 h 32.66276 v 14.72656 h -32.66276 v 50.12695 q 0,8.02409 0.2832,12.36654 0.28321,4.34244 2.17123,8.11849 1.60481,3.30403 5.19205,5.00325 3.58724,1.60482 9.72331,1.60482 4.34245,0 8.40169,-1.22722 4.05925,-1.32161 5.85287,-2.17122 h 1.03841 v 15.95378 q -5.00326,1.41601 -10.19531,2.17122 -5.09766,0.84961 -9.44011,0.84961 z" />
    <path
       id="path301"
       style="font-style:normal;font-variant:normal;font-weight:normal;font-stretch:normal;font-size:193.33332825px;line-height:0.81999999;font-family:Tahoma;-inkscape-font-specification:Tahoma;letter-spacing:-3.8499999px"
       d="m 779.95223,219.19234 h -17.74739 v -11.70573 q -8.21289,7.17448 -15.57617,10.95052 -7.36329,3.68164 -16.42579,3.68164 -6.89127,0 -13.02734,-2.26563 -6.04167,-2.26562 -10.57292,-7.17447 -4.53124,-4.90886 -7.08007,-12.36654 -2.45443,-7.45768 -2.45443,-18.125 v -68.44075 h 17.7474 v 60.03906 q 0,8.40169 0.5664,13.97135 0.66081,5.47526 2.83203,9.62891 2.17123,4.05924 5.85287,5.94726 3.77604,1.88802 10.76172,1.88802 6.51367,0 13.87695,-3.68164 7.36328,-3.68164 13.49935,-9.0625 v -78.73046 h 17.74739 z" />
    <path
       id="path303"
       style="font-style:normal;font-variant:normal;font-weight:normal;font-stretch:normal;font-size:193.33332825px;line-height:0.81999999;font-family:Tahoma;-inkscape-font-specification:Tahoma;letter-spacing:-3.8499999px"
       d="m 857.85352,132.81539 h -0.94401 q -1.98242,-0.56641 -4.24805,-0.66081 -2.17122,-0.1888 -5.28646,-0.1888 -7.17448,0 -14.25455,3.11523 -7.08008,3.11524 -13.40495,9.2513 v 74.86003 H 801.9681 V 113.74638 h 17.7474 v 15.67057 q 9.72331,-8.5905 16.89779,-12.08333 7.26888,-3.58724 14.06575,-3.58724 2.73763,0 4.05924,0.1888 1.41602,0.0944 3.11524,0.3776 z" />
    <path
       id="path305"
       style="font-style:normal;font-variant:normal;font-weight:normal;font-stretch:normal;font-size:193.33332825px;line-height:0.81999999;font-family:Tahoma;-inkscape-font-specification:Tahoma;letter-spacing:-3.8499999px"
       d="m 926.88113,193.23205 v -29.26432 q -6.32487,0.56641 -16.04818,1.60482 -9.62891,0.94401 -15.57617,2.73763 -7.08008,2.17122 -11.70573,6.70247 -4.62565,4.43685 -4.62565,12.46094 0,9.0625 5.09766,13.68815 5.09765,4.62565 14.91536,4.62565 8.40169,0 15.19857,-3.58724 6.79687,-3.68164 12.74414,-8.9681 z m 0,14.72656 q -2.17123,1.60482 -5.85287,4.53125 -3.58724,2.83203 -6.98567,4.53125 -4.72006,2.45443 -9.15691,3.77604 -4.34244,1.32162 -12.27213,1.32162 -6.51367,0 -12.36654,-2.45443 -5.85286,-2.45442 -10.28971,-6.89127 -4.24805,-4.34245 -6.79687,-10.66732 -2.54883,-6.41927 -2.54883,-13.49935 0,-10.95052 4.62565,-18.597 4.62565,-7.74089 14.63216,-12.27214 8.8737,-4.05924 20.95703,-5.56966 12.08333,-1.60482 26.05469,-2.36003 v -3.39843 q 0,-6.23047 -1.88802,-10.00651 -1.88802,-3.87045 -5.28646,-5.94727 -3.39844,-2.17122 -8.30729,-2.83203 -4.90886,-0.75521 -10.10091,-0.75521 -6.13607,0 -14.44336,1.88802 -8.3073,1.79362 -16.61459,5.28646 h -1.03841 V 116.012 q 4.90886,-1.41601 14.06576,-3.11523 9.1569,-1.69922 18.125,-1.69922 10.85612,0 18.3138,1.69922 7.45768,1.69922 13.40495,6.13606 5.75846,4.34245 8.59049,11.23373 2.83203,6.89127 2.83203,16.80338 v 72.1224 h -17.65299 z" />
    <path
       id="path307"
       style="font-style:normal;font-variant:normal;font-weight:normal;font-stretch:normal;font-size:193.33332825px;line-height:0.81999999;font-family:Tahoma;-inkscape-font-specification:Tahoma;letter-spacing:-3.8499999px"
       d="m 146.16893,380.46329 q -14.91537,0 -27.2819,-4.53124 -12.36654,-4.53125 -21.240236,-13.78256 -8.873698,-9.3457 -13.59375,-23.12825 -4.720052,-13.78255 -4.720052,-31.71875 0,-16.99219 4.720052,-30.39714 4.814453,-13.49934 13.688151,-23.03385 8.590495,-9.2513 21.145835,-14.25456 12.55534,-5.00325 27.4707,-5.00325 7.08008,0 13.59375,1.03841 6.51367,1.03841 12.46094,2.83203 4.72005,1.41602 10.47851,3.96485 5.85287,2.45442 9.44011,4.24804 v 22.56185 h -1.60482 q -3.49284,-3.11523 -7.26888,-5.85286 -3.68164,-2.83203 -10.47852,-6.04167 -5.66406,-2.83203 -13.02734,-4.72005 -7.36328,-1.88802 -15.85937,-1.88802 -20.29623,0 -32.85157,15.29297 -12.460934,15.29296 -12.460934,40.68684 0,14.16016 3.304034,24.73308 3.30404,10.57291 9.53451,17.93619 6.04166,7.26888 14.53776,11.13933 8.59049,3.77604 19.25781,3.77604 7.92969,0 15.76497,-1.13282 7.83529,-1.13281 13.21615,-3.39843 v -36.3444 h -32.47396 v -16.42578 h 50.97656 v 61.36067 q -3.58724,1.60482 -9.6289,4.05925 -5.94727,2.45442 -11.13933,3.87044 -6.89127,2.07682 -12.46093,3.11523 -5.56966,1.03841 -13.49935,1.03841 z" />
    <path
       id="path309"
       style="font-style:normal;font-variant:normal;font-weight:normal;font-stretch:normal;font-size:193.33332825px;line-height:0.81999999;font-family:Tahoma;-inkscape-font-specification:Tahoma;letter-spacing:-3.8499999px"
       d="m 270.13794,351.76538 v -29.26432 q -6.32487,0.5664 -16.04818,1.60481 -9.6289,0.94401 -15.57617,2.73763 -7.08008,2.17123 -11.70573,6.70248 -4.62565,4.43685 -4.62565,12.46094 0,9.0625 5.09766,13.68815 5.09765,4.62565 14.91536,4.62565 8.40169,0 15.19857,-3.58724 6.79687,-3.68164 12.74414,-8.9681 z m 0,14.72656 q -2.17122,1.60482 -5.85286,4.53125 -3.58724,2.83203 -6.98568,4.53125 -4.72005,2.45443 -9.1569,3.77604 -4.34245,1.32162 -12.27214,1.32162 -6.51367,0 -12.36653,-2.45443 -5.85287,-2.45443 -10.28972,-6.89128 -4.24804,-4.34244 -6.79687,-10.66731 -2.54883,-6.41927 -2.54883,-13.49935 0,-10.95052 4.62565,-18.59701 4.62565,-7.74088 14.63216,-12.27213 8.8737,-4.05925 20.95703,-5.56966 12.08334,-1.60482 26.05469,-2.36003 v -3.39844 q 0,-6.23046 -1.88802,-10.00651 -1.88802,-3.87044 -5.28646,-5.94726 -3.39844,-2.17123 -8.30729,-2.83203 -4.90885,-0.75521 -10.10091,-0.75521 -6.13607,0 -14.44336,1.88802 -8.30729,1.79362 -16.61458,5.28646 h -1.03841 v -18.0306 q 4.90885,-1.41602 14.06575,-3.11524 9.1569,-1.69921 18.125,-1.69921 10.85612,0 18.3138,1.69921 7.45768,1.69922 13.40495,6.13607 5.75846,4.34245 8.59049,11.23373 2.83203,6.89127 2.83203,16.80338 v 72.12239 h -17.65299 z" />
    <path
       id="path311"
       style="font-style:normal;font-variant:normal;font-weight:normal;font-stretch:normal;font-size:193.33332825px;line-height:0.81999999;font-family:Tahoma;-inkscape-font-specification:Tahoma;letter-spacing:-3.8499999px"
       d="M 391.84132,377.72566 H 374.09393 V 317.6866 q 0,-7.26888 -0.75521,-13.49934 -0.66081,-6.32487 -2.64323,-10.10092 -2.17123,-3.96484 -6.04167,-5.85286 -3.87044,-1.98242 -10.57291,-1.98242 -6.60808,0 -13.68816,3.58724 -6.98567,3.49284 -13.68815,9.1569 v 78.73046 H 308.95721 V 272.2797 h 17.74739 v 11.70573 q 7.92969,-7.08008 15.67058,-10.85612 7.74088,-3.77604 16.33138,-3.77604 15.57617,0 24.35546,10.28972 8.7793,10.19531 8.7793,29.64192 z" />
    <path
       id="path313"
       style="font-style:normal;font-variant:normal;font-weight:normal;font-stretch:normal;font-size:193.33332825px;line-height:0.81999999;font-family:Tahoma;-inkscape-font-specification:Tahoma;letter-spacing:-3.8499999px"
       d="m 472.00823,351.76538 v -29.26432 q -6.32487,0.5664 -16.04817,1.60481 -9.62891,0.94401 -15.57618,2.73763 -7.08007,2.17123 -11.70572,6.70248 -4.62566,4.43685 -4.62566,12.46094 0,9.0625 5.09766,13.68815 5.09766,4.62565 14.91537,4.62565 8.40169,0 15.19856,-3.58724 6.79688,-3.68164 12.74414,-8.9681 z m 0,14.72656 q -2.17122,1.60482 -5.85286,4.53125 -3.58724,2.83203 -6.98568,4.53125 -4.72005,2.45443 -9.1569,3.77604 -4.34245,1.32162 -12.27213,1.32162 -6.51368,0 -12.36654,-2.45443 -5.85287,-2.45443 -10.28971,-6.89128 -4.24805,-4.34244 -6.79688,-10.66731 -2.54883,-6.41927 -2.54883,-13.49935 0,-10.95052 4.62565,-18.59701 4.62566,-7.74088 14.63217,-12.27213 8.87369,-4.05925 20.95703,-5.56966 12.08333,-1.60482 26.05468,-2.36003 v -3.39844 q 0,-6.23046 -1.88802,-10.00651 -1.88802,-3.87044 -5.28646,-5.94726 -3.39843,-2.17123 -8.30729,-2.83203 -4.90885,-0.75521 -10.10091,-0.75521 -6.13607,0 -14.44336,1.88802 -8.30729,1.79362 -16.61458,5.28646 h -1.03841 v -18.0306 q 4.90885,-1.41602 14.06575,-3.11524 9.1569,-1.69921 18.125,-1.69921 10.85612,0 18.3138,1.69921 7.45769,1.69922 13.40495,6.13607 5.75846,4.34245 8.5905,11.23373 2.83203,6.89127 2.83203,16.80338 v 72.12239 h -17.653 z" />
    <path
       id="path315"
       style="font-style:normal;font-variant:normal;font-weight:normal;font-stretch:normal;font-size:193.33332825px;line-height:0.81999999;font-family:Tahoma;-inkscape-font-specification:Tahoma;letter-spacing:-3.8499999px"
       d="m 592.0124,377.72566 h -17.74739 v -10.76171 q -4.15365,3.49283 -7.17448,5.75846 -3.02083,2.26562 -7.08008,4.15365 -3.77604,1.79362 -7.83529,2.73763 -4.05924,1.03841 -9.4401,1.03841 -8.59049,0 -15.95378,-3.58724 -7.26888,-3.58724 -12.36653,-10.47852 -5.19206,-6.98567 -8.02409,-17.18099 -2.83203,-10.28971 -2.83203,-23.60026 0,-13.87695 3.58724,-23.97786 3.58724,-10.19531 9.91211,-17.7474 5.75846,-6.89127 13.87695,-10.76171 8.21289,-3.96485 17.18099,-3.96485 7.92969,0 13.78255,1.79362 5.85287,1.69922 12.36654,5.38086 v -45.6901 h 17.74739 z m -17.74739,-25.67708 v -60.79427 q -6.60808,-3.20963 -11.89453,-4.43685 -5.19206,-1.22721 -11.32813,-1.22721 -13.68815,0 -21.42903,10.28971 -7.74089,10.19532 -7.74089,29.54753 0,18.597 5.94727,28.50911 5.94726,9.81771 19.06901,9.81771 6.98567,0 14.06575,-3.11523 7.08008,-3.20964 13.31055,-8.5905 z" />
    <path
       id="path317"
       style="font-style:normal;font-variant:normal;font-weight:normal;font-stretch:normal;font-size:193.33332825px;line-height:0.81999999;font-family:Tahoma;-inkscape-font-specification:Tahoma;letter-spacing:-3.8499999px"
       d="m 659.62401,380.18009 q -25.20508,0 -39.17643,-14.16015 -13.87696,-14.25456 -13.87696,-40.40365 0,-25.77148 13.49935,-40.97005 13.49935,-15.29297 35.30599,-15.29297 9.81771,0 17.36979,2.83203 7.55208,2.83203 13.21615,8.8737 5.66406,6.04167 8.68489,14.82096 3.02084,8.6849 3.02084,21.33464 v 9.6289 h -73.06641 q 0,18.40821 9.2513,28.13151 9.2513,9.72331 25.58268,9.72331 5.85287,0 11.42253,-1.32161 5.66406,-1.32162 10.19531,-3.39844 4.81446,-2.17122 8.11849,-4.15365 3.30404,-2.07682 5.47526,-3.87044 h 1.03841 v 19.35221 q -3.11523,1.22722 -7.74088,3.11524 -4.62565,1.79362 -8.30729,2.83203 -5.19206,1.41602 -9.44011,2.17122 -4.15364,0.75521 -10.57291,0.75521 z m 20.76823,-66.93033 q -0.18881,-7.17448 -1.69922,-12.36654 -1.51042,-5.19206 -4.34245,-8.7793 -3.11524,-3.96484 -8.02409,-6.04166 -4.81445,-2.07683 -11.98893,-2.07683 -7.08008,0 -12.08333,2.17123 -4.90886,2.07682 -8.9681,6.13606 -3.96485,4.15365 -6.04167,9.25131 -2.07682,5.00325 -2.64323,11.70573 z" />
    <path
       id="path319"
       style="font-style:normal;font-variant:normal;font-weight:normal;font-stretch:normal;font-size:193.33332825px;line-height:0.81999999;font-family:Tahoma;-inkscape-font-specification:Tahoma;letter-spacing:-3.8499999px"
       d="M 767.82801,291.34871 H 766.884 q -1.98243,-0.5664 -4.24805,-0.6608 -2.17122,-0.18881 -5.28646,-0.18881 -7.17448,0 -14.25456,3.11524 -7.08007,3.11523 -13.40494,9.2513 v 74.86002 h -17.7474 V 272.2797 h 17.7474 v 15.67058 q 9.7233,-8.5905 16.89778,-12.08334 7.26888,-3.58724 14.06576,-3.58724 2.73763,0 4.05924,0.18881 1.41602,0.0944 3.11524,0.3776 z" />
    <path
       id="path321"
       style="font-style:normal;font-variant:normal;font-weight:normal;font-stretch:normal;font-size:193.33332825px;line-height:0.81999999;font-family:Tahoma;-inkscape-font-specification:Tahoma;letter-spacing:-3.8499999px"
       d="m 796.07437,377.72566 h -17.7474 V 272.2797 h 17.7474 z m 20.20182,-158.21614 -25.77149,35.30599 h -14.06575 l 16.89779,-35.30599 z" />
    <path
       id="path323"
       style="font-style:normal;font-variant:normal;font-weight:normal;font-stretch:normal;font-size:193.33332825px;line-height:0.81999999;font-family:Tahoma;-inkscape-font-specification:Tahoma;letter-spacing:-3.8499999px"
       d="m 877.18533,351.76538 v -29.26432 q -6.32487,0.5664 -16.04818,1.60481 -9.62891,0.94401 -15.57617,2.73763 -7.08008,2.17123 -11.70573,6.70248 -4.62565,4.43685 -4.62565,12.46094 0,9.0625 5.09765,13.68815 5.09766,4.62565 14.91537,4.62565 8.40169,0 15.19857,-3.58724 6.79687,-3.68164 12.74414,-8.9681 z m 0,14.72656 q -2.17123,1.60482 -5.85287,4.53125 -3.58724,2.83203 -6.98568,4.53125 -4.72005,2.45443 -9.1569,3.77604 -4.34244,1.32162 -12.27213,1.32162 -6.51367,0 -12.36654,-2.45443 -5.85286,-2.45443 -10.28971,-6.89128 -4.24805,-4.34244 -6.79688,-10.66731 -2.54882,-6.41927 -2.54882,-13.49935 0,-10.95052 4.62565,-18.59701 4.62565,-7.74088 14.63216,-12.27213 8.8737,-4.05925 20.95703,-5.56966 12.08333,-1.60482 26.05469,-2.36003 v -3.39844 q 0,-6.23046 -1.88802,-10.00651 -1.88803,-3.87044 -5.28646,-5.94726 -3.39844,-2.17123 -8.30729,-2.83203 -4.90886,-0.75521 -10.10092,-0.75521 -6.13606,0 -14.44335,1.88802 -8.3073,1.79362 -16.61459,5.28646 h -1.03841 v -18.0306 q 4.90886,-1.41602 14.06576,-3.11524 9.1569,-1.69921 18.125,-1.69921 10.85612,0 18.3138,1.69921 7.45768,1.69922 13.40494,6.13607 5.75847,4.34245 8.5905,11.23373 2.83203,6.89127 2.83203,16.80338 v 72.12239 h -17.65299 z" />
  </g>
  <g
     id="text86"
     style="font-style:normal;font-variant:normal;font-weight:normal;font-stretch:normal;font-size:40px;line-height:1.25;font-family:Interface;-inkscape-font-specification:Interface;letter-spacing:0px;word-spacing:0px;fill:#000000;fill-opacity:1;stroke:none"
     aria-label="y">
    <path
       id="path282"
       style="font-style:normal;font-variant:normal;font-weight:normal;font-stretch:normal;font-size:76px;font-family:Tahoma;-inkscape-font-specification:Tahoma"
       d="m 998.74652,189.12624 -22.30273,56.74023 h -7.45899 l 7.42188,-17.29297 -15.06641,-39.44726 h 7.5332 l 11.31836,30.68945 11.28125,-30.68945 z" />
  </g>
  <g
     id="text942-5-5-2"
     style="font-style:normal;font-variant:normal;font-weight:normal;font-stretch:normal;font-size:38.56478882px;line-height:1.25;font-family:Interface;-inkscape-font-specification:Interface;letter-spacing:0px;word-spacing:0px;fill:#000000;fill-opacity:1;stroke:none;stroke-width:0.96411979"
     transform="scale(1.0112865,0.98883946)"
     aria-label="Ministerio de">
    <path
       id="path257"
       style="font-style:normal;font-variant:normal;font-weight:500;font-stretch:normal;font-size:82.66666412px;font-family:'Comenia Sans';-inkscape-font-specification:'Comenia Sans Medium';letter-spacing:-3.23999834px;fill:#000000;stroke-width:0.96411979"
       d="m 182.48909,61.917332 h 9.672 l 13.80533,-41.746666 4.05067,41.746666 h 9.50667 L 213.24109,4.3813335 H 201.99843 L 187.36643,48.607999 172.65176,4.3813335 h -11.24267 l -6.28266,57.5359985 h 9.58933 l 3.968,-41.663999 z" />
    <path
       id="path259"
       style="font-style:normal;font-variant:normal;font-weight:500;font-stretch:normal;font-size:82.66666412px;font-family:'Comenia Sans';-inkscape-font-specification:'Comenia Sans Medium';letter-spacing:-3.23999834px;fill:#000000;stroke-width:0.96411979"
       d="m 234.68614,21.245333 h -9.25867 v 40.671999 h 9.25867 z m -10.168,-12.8959997 c 0,3.1413337 2.39733,5.5386667 5.456,5.5386667 3.224,0 5.62133,-2.397333 5.62133,-5.5386667 0,-3.1413332 -2.39733,-5.5386665 -5.62133,-5.5386665 -3.05867,0 -5.456,2.3973333 -5.456,5.5386665 z" />
    <path
       id="path261"
       style="font-style:normal;font-variant:normal;font-weight:500;font-stretch:normal;font-size:82.66666412px;font-family:'Comenia Sans';-inkscape-font-specification:'Comenia Sans Medium';letter-spacing:-3.23999834px;fill:#000000;stroke-width:0.96411979"
       d="M 279.78289,61.917332 V 34.389333 c 0,-8.68 -5.29067,-14.384 -13.06134,-14.384 -4.96,0 -9.25866,1.736 -13.64,4.216 l -0.82666,-2.976 h -8.432 v 40.671999 h 9.25866 V 31.330666 c 3.14134,-2.149333 6.77867,-3.389333 10.168,-3.389333 4.38134,0 7.27467,2.893333 7.27467,9.010666 v 24.965333 z" />
    <path
       id="path263"
       style="font-style:normal;font-variant:normal;font-weight:500;font-stretch:normal;font-size:82.66666412px;font-family:'Comenia Sans';-inkscape-font-specification:'Comenia Sans Medium';letter-spacing:-3.23999834px;fill:#000000;stroke-width:0.96411979"
       d="m 297.79468,21.245333 h -9.25867 v 40.671999 h 9.25867 z m -10.168,-12.8959997 c 0,3.1413337 2.39733,5.5386667 5.456,5.5386667 3.224,0 5.62133,-2.397333 5.62133,-5.5386667 0,-3.1413332 -2.39733,-5.5386665 -5.62133,-5.5386665 -3.05867,0 -5.456,2.3973333 -5.456,5.5386665 z" />
    <path
       id="path265"
       style="font-style:normal;font-variant:normal;font-weight:500;font-stretch:normal;font-size:82.66666412px;font-family:'Comenia Sans';-inkscape-font-specification:'Comenia Sans Medium';letter-spacing:-3.23999834px;fill:#000000;stroke-width:0.96411979"
       d="m 319.9101,20.005333 c -9.92,0 -15.78934,5.456 -15.78934,11.986666 0,13.061333 19.096,12.896 19.096,19.344 0,2.728 -2.232,4.546666 -5.86933,4.546666 -4.464,0 -9.25867,-1.157333 -13.30933,-2.728 v 6.778667 c 3.968,2.232 8.68,3.224 13.06133,3.224 8.184,0 15.45867,-4.216 15.45867,-12.234667 0,-12.895999 -19.344,-12.813333 -19.344,-19.426666 0,-2.149333 1.65333,-4.050666 5.86933,-4.050666 3.55467,0 8.68,0.826666 11.656,1.901333 v -7.936 C 327.1021,20.501333 323.6301,20.005333 319.9101,20.005333 Z" />
    <path
       id="path267"
       style="font-style:normal;font-variant:normal;font-weight:500;font-stretch:normal;font-size:82.66666412px;font-family:'Comenia Sans';-inkscape-font-specification:'Comenia Sans Medium';letter-spacing:-3.23999834px;fill:#000000;stroke-width:0.96411979"
       d="M 349.80135,21.245333 V 10.250667 h -9.25867 v 10.994666 h -6.2 v 7.44 h 6.2 v 22.071999 c 0,8.762666 4.96,12.4 11.73867,12.4 3.968,0 7.60533,-0.744 10.99466,-2.066667 v -6.861333 c -3.38933,0.826667 -5.12533,1.074667 -7.60533,1.074667 -3.472,0 -5.86933,-1.901334 -5.86933,-5.621334 V 28.685333 h 11.82133 v -7.44 z" />
    <path
       id="path269"
       style="font-style:normal;font-variant:normal;font-weight:500;font-stretch:normal;font-size:82.66666412px;font-family:'Comenia Sans';-inkscape-font-specification:'Comenia Sans Medium';letter-spacing:-3.23999834px;fill:#000000;stroke-width:0.96411979"
       d="m 400.59434,44.061332 c 2.56267,-14.383999 -2.31466,-24.055999 -15.78933,-24.055999 -10.33333,0 -19.75733,7.936 -19.75733,21.575999 0,15.541333 9.672,21.576 20.50133,21.576 4.54667,0 8.76267,-0.909334 13.144,-3.141334 v -7.026666 c -4.29867,1.488 -8.34933,2.397333 -11.73866,2.397333 -6.86134,0 -11.49067,-3.637333 -12.31734,-11.325333 z M 384.55701,27.362666 c 5.78667,0 8.184,4.298667 7.44,9.672 h -17.112 c 1.15734,-6.448 4.87734,-9.672 9.672,-9.672 z" />
    <path
       id="path271"
       style="font-style:normal;font-variant:normal;font-weight:500;font-stretch:normal;font-size:82.66666412px;font-family:'Comenia Sans';-inkscape-font-specification:'Comenia Sans Medium';letter-spacing:-3.23999834px;fill:#000000;stroke-width:0.96411979"
       d="m 416.9076,35.629333 c 3.30666,-5.456 6.28266,-7.357334 10.16799,-7.357334 1.81867,0 3.80267,0.413334 6.11734,1.157334 V 21.08 c -1.736,-0.744 -3.72,-1.074667 -5.53867,-1.074667 -4.62933,0 -8.68,3.224 -10.664,6.613333 l -0.82666,-5.373333 h -8.51467 v 40.671999 h 9.25867 z" />
    <path
       id="path273"
       style="font-style:normal;font-variant:normal;font-weight:500;font-stretch:normal;font-size:82.66666412px;font-family:'Comenia Sans';-inkscape-font-specification:'Comenia Sans Medium';letter-spacing:-3.23999834px;fill:#000000;stroke-width:0.96411979"
       d="m 446.12071,21.245333 h -9.25866 v 40.671999 h 9.25866 z m -10.168,-12.8959997 c 0,3.1413337 2.39734,5.5386667 5.456,5.5386667 3.224,0 5.62134,-2.397333 5.62134,-5.5386667 0,-3.1413332 -2.39734,-5.5386665 -5.62134,-5.5386665 -3.05866,0 -5.456,2.3973333 -5.456,5.5386665 z" />
    <path
       id="path275"
       style="font-style:normal;font-variant:normal;font-weight:500;font-stretch:normal;font-size:82.66666412px;font-family:'Comenia Sans';-inkscape-font-specification:'Comenia Sans Medium';letter-spacing:-3.23999834px;fill:#000000;stroke-width:0.96411979"
       d="m 473.0308,55.717332 c -6.448,0 -10.99467,-5.786667 -10.99467,-14.136 0,-10.333333 4.62933,-14.135999 10.99467,-14.135999 6.448,0 10.912,5.704 10.912,14.053333 0,10.333333 -4.54667,14.218666 -10.912,14.218666 z m 0,7.44 c 12.152,0 20.584,-8.266667 20.584,-21.658666 0,-14.797333 -9.50667,-21.493333 -20.584,-21.493333 -12.152,0 -20.66667,8.184 -20.66667,21.575999 0,14.797333 9.50667,21.576 20.66667,21.576 z" />
    <path
       id="path277"
       style="font-style:normal;font-variant:normal;font-weight:500;font-stretch:normal;font-size:82.66666412px;font-family:'Comenia Sans';-inkscape-font-specification:'Comenia Sans Medium';letter-spacing:-3.23999834px;fill:#000000;stroke-width:0.96411979"
       d="m 544.02369,61.917332 h 8.432 V 2.6702881e-7 h -9.25867 V 20.584 c -2.06666,-0.413334 -4.38133,-0.578667 -6.69599,-0.578667 -13.06134,0 -22.32,9.010666 -22.32,23.311999 0,12.813333 9.34133,19.84 17.44266,19.84 4.87734,0 8.10133,-1.488 11.57333,-4.216 z m -9.34133,-6.696 c -5.704,0 -10.82933,-4.794667 -10.82933,-13.309333 0,-9.341333 4.38133,-14.549333 12.06933,-14.549333 2.728,0 5.29066,0.578667 7.27466,1.570667 v 23.146666 c -2.56266,1.984 -5.456,3.141333 -8.51466,3.141333 z" />
    <path
       id="path279"
       style="font-style:normal;font-variant:normal;font-weight:500;font-stretch:normal;font-size:82.66666412px;font-family:'Comenia Sans';-inkscape-font-specification:'Comenia Sans Medium';letter-spacing:-3.23999834px;fill:#000000;stroke-width:0.96411979"
       d="m 594.27936,44.061332 c 2.56266,-14.383999 -2.31467,-24.055999 -15.78934,-24.055999 -10.33333,0 -19.75733,7.936 -19.75733,21.575999 0,15.541333 9.672,21.576 20.50133,21.576 4.54667,0 8.76267,-0.909334 13.144,-3.141334 v -7.026666 c -4.29866,1.488 -8.34933,2.397333 -11.73866,2.397333 -6.86134,0 -11.49067,-3.637333 -12.31734,-11.325333 z M 578.24202,27.362666 c 5.78667,0 8.184,4.298667 7.44,9.672 h -17.112 c 1.15734,-6.448 4.87734,-9.672 9.672,-9.672 z" />
  </g>
  <text
     id="text233"
     y="533.8266"
     x="368.45679"
     style="font-style:normal;font-variant:normal;font-weight:normal;font-stretch:normal;font-size:74.66666667px;line-height:1.25;font-family:Interface;-inkscape-font-specification:Interface;letter-spacing:0px;word-spacing:0px;fill:#000000;fill-opacity:1;stroke:none;"
     xml:space="preserve"><tspan
       y="570.31982"
       x="368.45679"
       id="tspan231" /></text>
  <path
     id="path239"
     d="M 390.23056,86.780357 A 13.716585,13.716585 0 0 1 376.51398,100.49694 13.716585,13.716585 0 0 1 362.79739,86.780357 13.716585,13.716585 0 0 1 376.51398,73.063772 13.716585,13.716585 0 0 1 390.23056,86.780357 Z"
     style="opacity:1;fill:#000000;fill-opacity:1;fill-rule:evenodd;stroke:#244e98;stroke-width:0;stroke-linecap:round;stroke-linejoin:round;stroke-miterlimit:4;stroke-dasharray:none;stroke-opacity:1;paint-order:stroke fill markers" />
</svg>
